<svg version="1.1" id="Map" class="gen-by-synoptic-designer" xmlns="http://www.w3.org/2000/svg" xmlns:xlink="http://www.w3.org/1999/xlink" viewBox="0 0 355 426" xml:space="preserve"><image width="355" height="426" xlink:href="" /><polygon id="NORTE" title="NO" points="79,24,79,25,86,25,86,26,89,26,89,27,92,27,92,28,94,28,94,29,95,29,95,30,97,30,97,31,98,31,98,32,100,32,100,33,101,33,101,34,102,34,102,35,103,35,103,36,104,36,104,37,105,37,105,39,106,39,106,40,107,40,107,41,108,41,108,43,109,43,109,45,110,45,110,48,111,48,111,51,112,51,112,56,113,56,113,63,112,63,112,68,111,68,111,72,110,72,110,74,109,74,109,76,108,76,108,78,107,78,107,79,106,79,106,81,105,81,105,82,104,82,104,83,103,83,103,84,102,84,102,85,101,85,101,86,100,86,100,87,99,87,99,88,97,88,97,89,96,89,96,90,94,90,94,91,92,91,92,92,90,92,90,93,86,93,86,94,81,94,81,95,74,95,74,94,69,94,69,93,66,93,66,92,63,92,63,91,61,91,61,90,59,90,59,89,58,89,58,88,57,88,57,87,55,87,55,86,54,86,54,85,53,85,53,84,52,84,52,83,51,83,51,82,50,82,50,80,49,80,49,79,48,79,48,77,47,77,47,76,46,76,46,74,45,74,45,71,44,71,44,68,43,68,43,61,42,61,42,58,43,58,43,51,44,51,44,48,45,48,45,46,46,46,46,44,47,44,47,42,48,42,48,40,49,40,49,39,50,39,50,38,51,38,51,36,52,36,52,35,53,35,53,34,54,34,54,33,56,33,56,32,57,32,57,31,58,31,58,30,60,30,60,29,62,29,62,28,64,28,64,27,66,27,66,26,69,26,69,25,76,25" /><polygon id="NORDESTE" title="NE" points="287,57,287,56,289,56,289,55,292,55,292,54,299,54,299,53,302,53,302,54,309,54,309,55,312,55,312,56,315,56,315,57,317,57,317,58,318,58,318,59,320,59,320,60,321,60,321,61,323,61,323,62,324,62,324,63,325,63,325,64,326,64,326,65,327,65,327,66,328,66,328,68,329,68,329,69,330,69,330,70,331,70,331,72,332,72,332,74,333,74,333,77,334,77,334,80,335,80,335,85,336,85,336,92,335,92,335,97,334,97,334,101,333,101,333,103,332,103,332,105,331,105,331,107,330,107,330,108,329,108,329,110,328,110,328,111,327,111,327,112,326,112,326,113,325,113,325,114,324,114,324,115,323,115,323,116,322,116,322,117,320,117,320,118,319,118,319,119,317,119,317,120,315,120,315,121,313,121,313,122,309,122,309,123,304,123,304,124,297,124,297,123,292,123,292,122,289,122,289,121,286,121,286,120,284,120,284,119,282,119,282,118,281,118,281,117,280,117,280,116,278,116,278,115,277,115,277,114,276,114,276,113,275,113,275,112,274,112,274,111,273,111,273,109,272,109,272,108,271,108,271,106,270,106,270,105,269,105,269,103,268,103,268,100,267,100,267,97,266,97,266,90,265,90,265,87,266,87,266,80,267,80,267,77,268,77,268,75,269,75,269,73,270,73,270,71,271,71,271,69,272,69,272,68,273,68,273,67,274,67,274,65,275,65,275,64,276,64,276,63,277,63,277,62,279,62,279,61,280,61,280,60,281,60,281,59,283,59,283,58,285,58,285,57" /><polygon id="SUDESTE" title="SE" points="192,164,199,164,199,165,202,165,202,166,205,166,205,167,207,167,207,168,208,168,208,169,210,169,210,170,211,170,211,171,213,171,213,172,214,172,214,173,215,173,215,174,216,174,216,175,217,175,217,176,218,176,218,178,219,178,219,179,220,179,220,180,221,180,221,182,222,182,222,184,223,184,223,187,224,187,224,190,225,190,225,195,226,195,226,202,225,202,225,207,224,207,224,211,223,211,223,213,222,213,222,215,221,215,221,217,220,217,220,218,219,218,219,220,218,220,218,221,217,221,217,222,216,222,216,223,215,223,215,224,214,224,214,225,213,225,213,226,212,226,212,227,210,227,210,228,209,228,209,229,207,229,207,230,205,230,205,231,203,231,203,232,199,232,199,233,194,233,194,234,187,234,187,233,182,233,182,232,179,232,179,231,176,231,176,230,174,230,174,229,172,229,172,228,171,228,171,227,170,227,170,226,168,226,168,225,167,225,167,224,166,224,166,223,165,223,165,222,164,222,164,221,163,221,163,219,162,219,162,218,161,218,161,216,160,216,160,215,159,215,159,213,158,213,158,210,157,210,157,207,156,207,156,200,155,200,155,197,156,197,156,190,157,190,157,187,158,187,158,185,159,185,159,183,160,183,160,181,161,181,161,179,162,179,162,178,163,178,163,177,164,177,164,175,165,175,165,174,166,174,166,173,167,173,167,172,169,172,169,171,170,171,170,170,171,170,171,169,173,169,173,168,175,168,175,167,177,167,177,166,179,166,179,165,182,165,182,164,189,164,189,163" /><polygon id="SUL" title="SUL" points="156,328,159,328,159,329,162,329,162,330,164,330,164,331,165,331,165,332,167,332,167,333,168,333,168,334,170,334,170,335,171,335,171,336,172,336,172,337,173,337,173,338,174,338,174,339,175,339,175,341,176,341,176,342,177,342,177,343,178,343,178,345,179,345,179,347,180,347,180,350,181,350,181,353,182,353,182,358,183,358,183,365,182,365,182,370,181,370,181,374,180,374,180,376,179,376,179,378,178,378,178,380,177,380,177,381,176,381,176,383,175,383,175,384,174,384,174,385,173,385,173,386,172,386,172,387,171,387,171,388,170,388,170,389,169,389,169,390,167,390,167,391,166,391,166,392,164,392,164,393,162,393,162,394,160,394,160,395,156,395,156,396,151,396,151,397,144,397,144,396,139,396,139,395,136,395,136,394,133,394,133,393,131,393,131,392,129,392,129,391,128,391,128,390,127,390,127,389,125,389,125,388,124,388,124,387,123,387,123,386,122,386,122,385,121,385,121,384,120,384,120,382,119,382,119,381,118,381,118,379,117,379,117,378,116,378,116,376,115,376,115,373,114,373,114,370,113,370,113,363,112,363,112,360,113,360,113,353,114,353,114,350,115,350,115,348,116,348,116,346,117,346,117,344,118,344,118,342,119,342,119,341,120,341,120,340,121,340,121,338,122,338,122,337,123,337,123,336,124,336,124,335,126,335,126,334,127,334,127,333,128,333,128,332,130,332,130,331,132,331,132,330,134,330,134,329,136,329,136,328,139,328,139,327,146,327,146,326,149,326,149,327" /><polygon id="S.IV" title="CA" points="63,265,63,264,64,264,64,263,65,263,65,262,66,262,66,261,67,261,67,260,68,260,68,259,69,259,69,258,70,258,70,257,71,257,71,256,72,256,72,255,73,255,73,254,74,254,74,253,75,253,75,252,76,252,76,251,77,251,77,250,78,250,78,249,79,249,79,248,80,248,80,247,81,247,81,246,82,246,82,245,83,245,83,244,84,244,84,243,85,243,85,242,86,242,86,241,87,241,87,240,88,240,88,239,89,239,89,238,89,291,36,291,37,291,37,290,38,290,38,289,39,289,39,288,40,288,40,287,41,287,41,286,42,286,42,285,43,285,43,284,44,284,44,283,45,283,45,282,46,282,46,281,47,281,47,280,48,280,48,279,49,279,49,278,50,278,50,277,51,277,51,276,52,276,52,275,53,275,53,274,54,274,54,273,55,273,55,272,56,272,56,271,57,271,57,270,58,270,58,269,59,269,59,268,60,268,60,267,61,267,61,266,62,266" /><polygon id="SE.IV" title="CC" points="83,233,82,233,82,234,81,234,81,235,80,235,80,236,79,236,79,237,78,237,78,238,77,238,77,239,76,239,76,240,75,240,75,241,74,241,74,242,73,242,73,243,72,243,72,244,71,244,71,245,70,245,70,246,69,246,69,247,68,247,68,248,67,248,67,249,66,249,66,250,65,250,65,251,64,251,64,252,63,252,63,253,62,253,62,254,61,254,61,255,60,255,60,256,59,256,59,257,58,257,58,258,57,258,57,259,56,259,56,260,55,260,55,261,54,261,54,262,53,262,53,263,52,263,52,264,51,264,51,265,50,265,50,266,49,266,49,267,48,267,48,268,47,268,47,269,46,269,46,270,45,270,45,271,44,271,44,272,43,272,43,273,42,273,42,274,41,274,41,275,40,275,40,276,39,276,39,277,38,277,38,278,37,278,37,279,36,279,36,280,35,280,35,281,34,281,34,282,33,282,33,283,32,283,32,284,31,284,31,285,30,285,30,286,30,233" /><polygon id="S.IV" title="S-IV" points="170,257,170,258,172,258,172,255,173,255,173,251,174,251,174,248,175,248,175,244,176,244,176,243,178,243,178,244,183,244,183,245,186,245,186,248,185,248,185,251,184,251,184,255,183,255,183,258,182,258,182,261,181,261,181,265,180,265,180,268,179,268,179,271,178,271,178,275,177,275,177,278,176,278,176,282,175,282,175,285,174,285,174,288,173,288,173,292,172,292,172,295,171,295,171,298,170,298,170,302,169,302,169,305,168,305,168,309,167,309,167,312,166,312,166,315,165,315,165,319,165,318,163,318,163,317,159,317,159,316,154,316,154,315,155,315,155,312,156,312,156,309,157,309,157,305,158,305,158,302,159,302,159,299,160,299,160,295,161,295,161,292,162,292,162,288,163,288,163,285,164,285,164,282,165,282,165,278,166,278,166,275,167,275,167,271,168,271,168,267,98,267,98,257" /><polygon id="SE.IV" title="SE-IV" points="145,192,144,192,144,203,66,203,66,224,55,224,55,193,56,193,56,192" /><polygon id="NE.SE" title="NE-SE" points="256,136,256,135,257,135,257,134,258,134,258,133,259,133,259,132,260,132,260,131,261,131,261,130,263,130,263,129,264,129,264,128,265,128,265,127,266,127,266,126,267,126,267,125,268,125,268,124,269,124,269,123,270,123,270,124,271,124,271,125,272,125,272,126,273,126,273,127,275,127,275,128,276,128,276,129,278,129,278,130,277,130,277,131,276,131,276,132,275,132,275,133,274,133,274,134,273,134,273,135,271,135,271,136,270,136,270,137,269,137,269,138,268,138,268,139,267,139,267,140,266,140,266,141,265,141,265,142,263,142,263,143,262,143,262,144,261,144,261,145,260,145,260,146,259,146,259,147,258,147,258,148,257,148,257,149,256,149,256,150,254,150,254,151,253,151,253,152,252,152,252,153,251,153,251,154,250,154,250,155,249,155,249,156,248,156,248,157,247,157,247,158,245,158,245,159,244,159,244,160,243,160,243,161,242,161,242,162,241,162,241,163,240,163,240,164,239,164,239,165,238,165,238,166,236,166,236,167,235,167,235,168,234,168,234,169,233,169,233,170,232,170,232,171,231,171,231,172,230,172,230,173,229,173,229,171,228,171,228,170,227,170,227,169,226,169,226,168,225,168,225,167,224,167,224,166,223,166,223,165,222,165,223,165,223,164,224,164,224,163,225,163,225,162,226,162,226,161,228,161,228,160,229,160,229,159,230,159,230,158,231,158,231,157,232,157,232,156,233,156,233,155,234,155,234,154,235,154,235,153,237,153,237,152,238,152,238,151,239,151,239,150,240,150,240,149,241,149,241,148,242,148,242,147,243,147,243,146,244,146,244,145,246,145,246,144,247,144,247,143,248,143,248,142,249,142,249,141,250,141,250,140,251,140,251,139,252,139,252,138,254,138,254,137,255,137" /><polygon id="N.SE" title="N-SE" points="149,141,150,141,150,142,151,142,151,143,152,143,152,144,153,144,153,146,154,146,154,147,155,147,155,148,156,148,156,149,157,149,157,151,158,151,158,152,159,152,159,153,160,153,160,154,161,154,161,156,162,156,162,157,163,157,163,158,164,158,164,159,165,159,165,160,164,160,164,161,162,161,162,162,161,162,161,163,160,163,160,164,159,164,159,165,158,165,158,166,157,166,157,167,157,166,156,166,156,165,155,165,155,164,154,164,154,162,153,162,153,161,152,161,152,160,151,160,151,158,150,158,150,157,149,157,149,156,148,156,148,155,147,155,147,153,146,153,146,152,145,152,145,151,144,151,144,150,143,150,143,148,142,148,142,147,141,147,141,146,140,146,140,145,139,145,139,143,138,143,138,142,137,142,137,141,136,141,136,140,135,140,135,138,134,138,134,137,133,137,133,136,132,136,132,135,131,135,131,133,130,133,130,132,129,132,129,131,128,131,128,130,127,130,127,128,126,128,126,127,125,127,125,126,124,126,124,125,123,125,123,123,122,123,122,122,121,122,121,121,120,121,120,119,119,119,119,118,118,118,118,117,117,117,117,116,116,116,116,114,115,114,115,113,114,113,114,112,113,112,113,111,112,111,112,109,111,109,111,108,110,108,110,107,109,107,109,106,108,106,108,104,107,104,107,103,106,103,106,102,105,102,105,101,104,101,104,99,103,99,103,98,105,98,105,97,106,97,106,96,107,96,107,95,109,95,109,94,110,94,110,93,111,93,111,92,111,93,112,93,112,94,113,94,113,95,114,95,114,97,115,97,115,98,116,98,116,99,117,99,117,100,118,100,118,102,119,102,119,103,120,103,120,104,121,104,121,105,122,105,122,107,123,107,123,108,124,108,124,109,125,109,125,110,126,110,126,112,127,112,127,113,128,113,128,114,129,114,129,115,130,115,130,117,131,117,131,118,132,118,132,119,133,119,133,120,134,120,134,122,135,122,135,123,136,123,136,124,137,124,137,126,138,126,138,127,139,127,139,128,140,128,140,129,141,129,141,131,142,131,142,132,143,132,143,133,144,133,144,134,145,134,145,136,146,136,146,137,147,137,147,138,148,138,148,139" /><polygon id="SE.FC" title="SE-FC" points="208,87,208,86,208,87,207,87,207,100,206,100,206,113,205,113,205,126,204,126,204,139,203,139,203,151,202,151,202,154,202,153,197,153,197,152,192,152,192,142,193,142,193,129,194,129,194,116,195,116,195,103,196,103,196,90,197,90,197,87" /><polygon id="N.FC" title="N-FC" points="162,60,162,61,170,61,170,62,178,62,178,63,186,63,186,66,185,66,185,74,180,74,180,73,171,73,171,72,163,72,163,71,155,71,155,70,147,70,147,69,139,69,139,68,130,68,130,67,123,67,124,67,124,56,129,56,129,57,137,57,137,58,145,58,145,59,153,59,153,60" /><polygon id="NE.FC" title="NE-FC" points="244,70,244,71,252,71,252,72,257,72,257,74,256,74,256,77,255,77,255,82,254,82,254,83,253,83,253,82,245,82,245,81,237,81,237,80,229,80,229,79,221,79,221,78,217,78,218,78,218,76,219,76,219,67,219,68,227,68,227,69,235,69,235,70" /></svg>